<svg width="753" height="120" viewBox="0 0 753 120" fill="none" xmlns="http://www.w3.org/2000/svg">
<rect width="753" height="120" rx="5" fill="white"/>
<path d="M635 0H748C750.761 0 753 2.23858 753 5V115C753 117.761 750.761 120 748 120H635V0Z" fill="#C4C4C4" fill-opacity="0.8"/>
<rect x="577" width="58" height="120" fill="#06A284" fill-opacity="0.8"/>
<rect x="520" width="57" height="120" fill="#EC0101" fill-opacity="0.7"/>
<rect x="434" width="86" height="120" fill="#06A284" fill-opacity="0.8"/>
<rect x="348" width="86" height="120" fill="#FFD86E" fill-opacity="0.8"/>
<rect x="290" width="58" height="120" fill="#06A284" fill-opacity="0.8"/>
<rect x="261" width="29" height="120" fill="#FFD86E" fill-opacity="0.8"/>
<rect x="175" width="86" height="120" fill="#06A284" fill-opacity="0.8"/>
<path d="M0 5C0 2.23858 2.23858 0 5 0H175V120H5C2.23858 120 0 117.761 0 115V5Z" fill="#C4C4C4" fill-opacity="0.8"/>
<path d="M13.136 29.384L11.648 34.184H21.056L19.568 29.384C19.024 27.624 18.48 25.88 17.936 24.152C17.424 22.392 16.928 20.6 16.448 18.776H16.256C15.744 20.6 15.232 22.392 14.72 24.152C14.208 25.88 13.68 27.624 13.136 29.384ZM3.536 47L14.144 15.512H18.656L29.264 47H25.04L22.064 37.4H10.64L7.616 47H3.536ZM41.9173 29.384L40.4293 34.184H49.8373L48.3493 29.384C47.8053 27.624 47.2613 25.88 46.7173 24.152C46.2053 22.392 45.7093 20.6 45.2293 18.776H45.0373C44.5253 20.6 44.0133 22.392 43.5013 24.152C42.9893 25.88 42.4613 27.624 41.9173 29.384ZM32.3173 47L42.9253 15.512H47.4373L58.0453 47H53.8213L50.8453 37.4H39.4213L36.3973 47H32.3173ZM70.6985 29.384L69.2105 34.184H78.6185L77.1305 29.384C76.5865 27.624 76.0425 25.88 75.4985 24.152C74.9865 22.392 74.4905 20.6 74.0105 18.776H73.8185C73.3065 20.6 72.7945 22.392 72.2825 24.152C71.7705 25.88 71.2425 27.624 70.6985 29.384ZM61.0985 47L71.7065 15.512H76.2185L86.8265 47H82.6025L79.6265 37.4H68.2025L65.1785 47H61.0985ZM99.4798 29.384L97.9918 34.184H107.4L105.912 29.384C105.368 27.624 104.824 25.88 104.28 24.152C103.768 22.392 103.272 20.6 102.792 18.776H102.6C102.088 20.6 101.576 22.392 101.064 24.152C100.552 25.88 100.024 27.624 99.4798 29.384ZM89.8798 47L100.488 15.512H105L115.608 47H111.384L108.408 37.4H96.9838L93.9598 47H89.8798ZM128.261 29.384L126.773 34.184H136.181L134.693 29.384C134.149 27.624 133.605 25.88 133.061 24.152C132.549 22.392 132.053 20.6 131.573 18.776H131.381C130.869 20.6 130.357 22.392 129.845 24.152C129.333 25.88 128.805 27.624 128.261 29.384ZM118.661 47L129.269 15.512H133.781L144.389 47H140.165L137.189 37.4H125.765L122.741 47H118.661ZM157.042 29.384L155.554 34.184H164.962L163.474 29.384C162.93 27.624 162.386 25.88 161.842 24.152C161.33 22.392 160.834 20.6 160.354 18.776H160.162C159.65 20.6 159.138 22.392 158.626 24.152C158.114 25.88 157.586 27.624 157.042 29.384ZM147.442 47L158.05 15.512H162.562L173.17 47H168.946L165.97 37.4H154.546L151.522 47H147.442ZM190.864 47.576C188.88 47.576 187.056 47.208 185.392 46.472C183.728 45.736 182.288 44.68 181.072 43.304C179.856 41.896 178.912 40.184 178.24 38.168C177.568 36.12 177.232 33.816 177.232 31.256C177.232 28.728 177.568 26.456 178.24 24.44C178.944 22.392 179.904 20.68 181.12 19.304C182.368 17.896 183.84 16.824 185.536 16.088C187.264 15.32 189.152 14.936 191.2 14.936C192.256 14.936 193.216 15.048 194.08 15.272C194.944 15.496 195.728 15.8 196.432 16.184C197.168 16.536 197.808 16.936 198.352 17.384C198.928 17.832 199.44 18.296 199.888 18.776L197.632 21.32C196.864 20.488 195.984 19.8 194.992 19.256C194 18.712 192.736 18.44 191.2 18.44C189.728 18.44 188.384 18.744 187.168 19.352C185.984 19.928 184.96 20.776 184.096 21.896C183.232 22.984 182.56 24.312 182.08 25.88C181.632 27.448 181.408 29.208 181.408 31.16C181.408 33.144 181.616 34.936 182.032 36.536C182.48 38.104 183.104 39.448 183.904 40.568C184.736 41.688 185.76 42.552 186.976 43.16C188.192 43.768 189.568 44.072 191.104 44.072C192.224 44.072 193.264 43.912 194.224 43.592C195.184 43.24 195.968 42.776 196.576 42.2V33.992H190.288V30.68H200.272V43.928C199.28 44.952 197.968 45.816 196.336 46.52C194.736 47.224 192.912 47.576 190.864 47.576ZM215.853 47V18.872H205.485V15.512H230.253V18.872H219.885V47H215.853ZM248.426 47.576C246.442 47.576 244.618 47.208 242.954 46.472C241.29 45.736 239.85 44.68 238.634 43.304C237.418 41.896 236.474 40.184 235.802 38.168C235.13 36.12 234.794 33.816 234.794 31.256C234.794 28.728 235.13 26.456 235.802 24.44C236.506 22.392 237.466 20.68 238.682 19.304C239.93 17.896 241.402 16.824 243.098 16.088C244.826 15.32 246.714 14.936 248.762 14.936C249.818 14.936 250.778 15.048 251.642 15.272C252.506 15.496 253.29 15.8 253.994 16.184C254.73 16.536 255.37 16.936 255.914 17.384C256.49 17.832 257.002 18.296 257.45 18.776L255.194 21.32C254.426 20.488 253.546 19.8 252.554 19.256C251.562 18.712 250.298 18.44 248.762 18.44C247.29 18.44 245.946 18.744 244.73 19.352C243.546 19.928 242.522 20.776 241.658 21.896C240.794 22.984 240.122 24.312 239.642 25.88C239.194 27.448 238.97 29.208 238.97 31.16C238.97 33.144 239.178 34.936 239.594 36.536C240.042 38.104 240.666 39.448 241.466 40.568C242.298 41.688 243.322 42.552 244.538 43.16C245.754 43.768 247.13 44.072 248.666 44.072C249.786 44.072 250.826 43.912 251.786 43.592C252.746 43.24 253.53 42.776 254.138 42.2V33.992H247.85V30.68H257.834V43.928C256.842 44.952 255.53 45.816 253.898 46.52C252.298 47.224 250.474 47.576 248.426 47.576ZM277.207 47.576C275.223 47.576 273.399 47.208 271.735 46.472C270.071 45.736 268.631 44.68 267.415 43.304C266.199 41.896 265.255 40.184 264.583 38.168C263.911 36.12 263.575 33.816 263.575 31.256C263.575 28.728 263.911 26.456 264.583 24.44C265.287 22.392 266.247 20.68 267.463 19.304C268.711 17.896 270.183 16.824 271.879 16.088C273.607 15.32 275.495 14.936 277.543 14.936C278.599 14.936 279.559 15.048 280.423 15.272C281.287 15.496 282.071 15.8 282.775 16.184C283.511 16.536 284.151 16.936 284.695 17.384C285.271 17.832 285.783 18.296 286.231 18.776L283.975 21.32C283.207 20.488 282.327 19.8 281.335 19.256C280.343 18.712 279.079 18.44 277.543 18.44C276.071 18.44 274.727 18.744 273.511 19.352C272.327 19.928 271.303 20.776 270.439 21.896C269.575 22.984 268.903 24.312 268.423 25.88C267.975 27.448 267.751 29.208 267.751 31.16C267.751 33.144 267.959 34.936 268.375 36.536C268.823 38.104 269.447 39.448 270.247 40.568C271.079 41.688 272.103 42.552 273.319 43.16C274.535 43.768 275.911 44.072 277.447 44.072C278.567 44.072 279.607 43.912 280.567 43.592C281.527 43.24 282.311 42.776 282.919 42.2V33.992H276.631V30.68H286.615V43.928C285.623 44.952 284.311 45.816 282.679 46.52C281.079 47.224 279.255 47.576 277.207 47.576ZM302.197 47V18.872H291.829V15.512H316.597V18.872H306.229V47H302.197ZM330.978 47V18.872H320.61V15.512H345.378V18.872H335.01V47H330.978ZM351.455 32.648V29.672H372.095V32.648H351.455ZM380.236 32.648V29.672H400.876V32.648H380.236ZM409.018 32.648V29.672H429.658V32.648H409.018ZM449.895 47.576C447.911 47.576 446.087 47.208 444.423 46.472C442.759 45.736 441.319 44.68 440.103 43.304C438.887 41.896 437.943 40.184 437.271 38.168C436.599 36.12 436.263 33.816 436.263 31.256C436.263 28.728 436.599 26.456 437.271 24.44C437.975 22.392 438.935 20.68 440.151 19.304C441.399 17.896 442.871 16.824 444.567 16.088C446.295 15.32 448.183 14.936 450.231 14.936C451.287 14.936 452.247 15.048 453.111 15.272C453.975 15.496 454.759 15.8 455.463 16.184C456.199 16.536 456.839 16.936 457.383 17.384C457.959 17.832 458.471 18.296 458.919 18.776L456.663 21.32C455.895 20.488 455.015 19.8 454.023 19.256C453.031 18.712 451.767 18.44 450.231 18.44C448.759 18.44 447.415 18.744 446.199 19.352C445.015 19.928 443.991 20.776 443.127 21.896C442.263 22.984 441.591 24.312 441.111 25.88C440.663 27.448 440.439 29.208 440.439 31.16C440.439 33.144 440.647 34.936 441.063 36.536C441.511 38.104 442.135 39.448 442.935 40.568C443.767 41.688 444.791 42.552 446.007 43.16C447.223 43.768 448.599 44.072 450.135 44.072C451.255 44.072 452.295 43.912 453.255 43.592C454.215 43.24 454.999 42.776 455.607 42.2V33.992H449.319V30.68H459.303V43.928C458.311 44.952 456.999 45.816 455.367 46.52C453.767 47.224 451.943 47.576 449.895 47.576ZM473.636 29.384L472.148 34.184H481.556L480.068 29.384C479.524 27.624 478.98 25.88 478.436 24.152C477.924 22.392 477.428 20.6 476.948 18.776H476.756C476.244 20.6 475.732 22.392 475.22 24.152C474.708 25.88 474.18 27.624 473.636 29.384ZM464.036 47L474.644 15.512H479.156L489.764 47H485.54L482.564 37.4H471.14L468.116 47H464.036ZM503.665 47V18.872H493.297V15.512H518.065V18.872H507.697V47H503.665ZM536.239 47.576C534.255 47.576 532.431 47.208 530.767 46.472C529.103 45.736 527.663 44.68 526.447 43.304C525.231 41.896 524.287 40.184 523.615 38.168C522.943 36.12 522.607 33.816 522.607 31.256C522.607 28.728 522.943 26.456 523.615 24.44C524.319 22.392 525.279 20.68 526.495 19.304C527.743 17.896 529.215 16.824 530.911 16.088C532.639 15.32 534.527 14.936 536.575 14.936C537.631 14.936 538.591 15.048 539.455 15.272C540.319 15.496 541.103 15.8 541.807 16.184C542.543 16.536 543.183 16.936 543.727 17.384C544.303 17.832 544.815 18.296 545.263 18.776L543.007 21.32C542.239 20.488 541.359 19.8 540.367 19.256C539.375 18.712 538.111 18.44 536.575 18.44C535.103 18.44 533.759 18.744 532.543 19.352C531.359 19.928 530.335 20.776 529.471 21.896C528.607 22.984 527.935 24.312 527.455 25.88C527.007 27.448 526.783 29.208 526.783 31.16C526.783 33.144 526.991 34.936 527.407 36.536C527.855 38.104 528.479 39.448 529.279 40.568C530.111 41.688 531.135 42.552 532.351 43.16C533.567 43.768 534.943 44.072 536.479 44.072C537.599 44.072 538.639 43.912 539.599 43.592C540.559 43.24 541.343 42.776 541.951 42.2V33.992H535.663V30.68H545.647V43.928C544.655 44.952 543.343 45.816 541.711 46.52C540.111 47.224 538.287 47.576 536.239 47.576ZM565.02 47.576C563.036 47.576 561.212 47.208 559.548 46.472C557.884 45.736 556.444 44.68 555.228 43.304C554.012 41.896 553.068 40.184 552.396 38.168C551.724 36.12 551.388 33.816 551.388 31.256C551.388 28.728 551.724 26.456 552.396 24.44C553.1 22.392 554.06 20.68 555.276 19.304C556.524 17.896 557.996 16.824 559.692 16.088C561.42 15.32 563.308 14.936 565.356 14.936C566.412 14.936 567.372 15.048 568.236 15.272C569.1 15.496 569.884 15.8 570.588 16.184C571.324 16.536 571.964 16.936 572.508 17.384C573.084 17.832 573.596 18.296 574.044 18.776L571.788 21.32C571.02 20.488 570.14 19.8 569.148 19.256C568.156 18.712 566.892 18.44 565.356 18.44C563.884 18.44 562.54 18.744 561.324 19.352C560.14 19.928 559.116 20.776 558.252 21.896C557.388 22.984 556.716 24.312 556.236 25.88C555.788 27.448 555.564 29.208 555.564 31.16C555.564 33.144 555.772 34.936 556.188 36.536C556.636 38.104 557.26 39.448 558.06 40.568C558.892 41.688 559.916 42.552 561.132 43.16C562.348 43.768 563.724 44.072 565.26 44.072C566.38 44.072 567.42 43.912 568.38 43.592C569.34 43.24 570.124 42.776 570.732 42.2V33.992H564.444V30.68H574.428V43.928C573.436 44.952 572.124 45.816 570.492 46.52C568.892 47.224 567.068 47.576 565.02 47.576ZM590.009 47V18.872H579.641V15.512H604.409V18.872H594.041V47H590.009ZM618.79 47V18.872H608.422V15.512H633.19V18.872H622.822V47H618.79ZM190.864 107.576C188.88 107.576 187.056 107.208 185.392 106.472C183.728 105.736 182.288 104.68 181.072 103.304C179.856 101.896 178.912 100.184 178.24 98.168C177.568 96.12 177.232 93.816 177.232 91.256C177.232 88.728 177.568 86.456 178.24 84.44C178.944 82.392 179.904 80.68 181.12 79.304C182.368 77.896 183.84 76.824 185.536 76.088C187.264 75.32 189.152 74.936 191.2 74.936C192.256 74.936 193.216 75.048 194.08 75.272C194.944 75.496 195.728 75.8 196.432 76.184C197.168 76.536 197.808 76.936 198.352 77.384C198.928 77.832 199.44 78.296 199.888 78.776L197.632 81.32C196.864 80.488 195.984 79.8 194.992 79.256C194 78.712 192.736 78.44 191.2 78.44C189.728 78.44 188.384 78.744 187.168 79.352C185.984 79.928 184.96 80.776 184.096 81.896C183.232 82.984 182.56 84.312 182.08 85.88C181.632 87.448 181.408 89.208 181.408 91.16C181.408 93.144 181.616 94.936 182.032 96.536C182.48 98.104 183.104 99.448 183.904 100.568C184.736 101.688 185.76 102.552 186.976 103.16C188.192 103.768 189.568 104.072 191.104 104.072C192.224 104.072 193.264 103.912 194.224 103.592C195.184 103.24 195.968 102.776 196.576 102.2V93.992H190.288V90.68H200.272V103.928C199.28 104.952 197.968 105.816 196.336 106.52C194.736 107.224 192.912 107.576 190.864 107.576ZM215.853 107V78.872H205.485V75.512H230.253V78.872H219.885V107H215.853ZM248.426 107.576C246.442 107.576 244.618 107.208 242.954 106.472C241.29 105.736 239.85 104.68 238.634 103.304C237.418 101.896 236.474 100.184 235.802 98.168C235.13 96.12 234.794 93.816 234.794 91.256C234.794 88.728 235.13 86.456 235.802 84.44C236.506 82.392 237.466 80.68 238.682 79.304C239.93 77.896 241.402 76.824 243.098 76.088C244.826 75.32 246.714 74.936 248.762 74.936C249.818 74.936 250.778 75.048 251.642 75.272C252.506 75.496 253.29 75.8 253.994 76.184C254.73 76.536 255.37 76.936 255.914 77.384C256.49 77.832 257.002 78.296 257.45 78.776L255.194 81.32C254.426 80.488 253.546 79.8 252.554 79.256C251.562 78.712 250.298 78.44 248.762 78.44C247.29 78.44 245.946 78.744 244.73 79.352C243.546 79.928 242.522 80.776 241.658 81.896C240.794 82.984 240.122 84.312 239.642 85.88C239.194 87.448 238.97 89.208 238.97 91.16C238.97 93.144 239.178 94.936 239.594 96.536C240.042 98.104 240.666 99.448 241.466 100.568C242.298 101.688 243.322 102.552 244.538 103.16C245.754 103.768 247.13 104.072 248.666 104.072C249.786 104.072 250.826 103.912 251.786 103.592C252.746 103.24 253.53 102.776 254.138 102.2V93.992H247.85V90.68H257.834V103.928C256.842 104.952 255.53 105.816 253.898 106.52C252.298 107.224 250.474 107.576 248.426 107.576ZM265.111 92.648V89.672H285.751V92.648H265.111ZM302.197 107V78.872H291.829V75.512H316.597V78.872H306.229V107H302.197ZM330.978 107V78.872H320.61V75.512H345.378V78.872H335.01V107H330.978ZM364.223 107.576C362.271 107.576 360.463 107.208 358.799 106.472C357.135 105.736 355.679 104.68 354.431 103.304C353.215 101.896 352.255 100.184 351.551 98.168C350.847 96.12 350.495 93.816 350.495 91.256C350.495 88.728 350.847 86.456 351.551 84.44C352.255 82.424 353.231 80.712 354.479 79.304C355.727 77.896 357.215 76.824 358.943 76.088C360.671 75.32 362.559 74.936 364.607 74.936C366.495 74.936 368.159 75.32 369.599 76.088C371.071 76.856 372.271 77.752 373.199 78.776L370.943 81.32C370.111 80.456 369.183 79.768 368.159 79.256C367.135 78.712 365.951 78.44 364.607 78.44C363.103 78.44 361.727 78.744 360.479 79.352C359.263 79.928 358.223 80.776 357.359 81.896C356.495 82.984 355.823 84.312 355.343 85.88C354.863 87.448 354.623 89.208 354.623 91.16C354.623 93.144 354.863 94.936 355.343 96.536C355.823 98.104 356.495 99.448 357.359 100.568C358.223 101.688 359.263 102.552 360.479 103.16C361.727 103.768 363.103 104.072 364.607 104.072C366.047 104.072 367.327 103.768 368.447 103.16C369.599 102.552 370.687 101.688 371.711 100.568L373.967 103.016C372.719 104.456 371.311 105.576 369.743 106.376C368.175 107.176 366.335 107.576 364.223 107.576ZM393.004 107.576C391.052 107.576 389.244 107.208 387.58 106.472C385.916 105.736 384.46 104.68 383.212 103.304C381.996 101.896 381.036 100.184 380.332 98.168C379.628 96.12 379.276 93.816 379.276 91.256C379.276 88.728 379.628 86.456 380.332 84.44C381.036 82.424 382.012 80.712 383.26 79.304C384.508 77.896 385.996 76.824 387.724 76.088C389.452 75.32 391.34 74.936 393.388 74.936C395.276 74.936 396.94 75.32 398.38 76.088C399.852 76.856 401.052 77.752 401.98 78.776L399.724 81.32C398.892 80.456 397.964 79.768 396.94 79.256C395.916 78.712 394.732 78.44 393.388 78.44C391.884 78.44 390.508 78.744 389.26 79.352C388.044 79.928 387.004 80.776 386.14 81.896C385.276 82.984 384.604 84.312 384.124 85.88C383.644 87.448 383.404 89.208 383.404 91.16C383.404 93.144 383.644 94.936 384.124 96.536C384.604 98.104 385.276 99.448 386.14 100.568C387.004 101.688 388.044 102.552 389.26 103.16C390.508 103.768 391.884 104.072 393.388 104.072C394.828 104.072 396.108 103.768 397.228 103.16C398.38 102.552 399.468 101.688 400.492 100.568L402.748 103.016C401.5 104.456 400.092 105.576 398.524 106.376C396.956 107.176 395.116 107.576 393.004 107.576ZM417.322 107V78.872H406.954V75.512H431.722V78.872H421.354V107H417.322ZM449.895 107.576C447.911 107.576 446.087 107.208 444.423 106.472C442.759 105.736 441.319 104.68 440.103 103.304C438.887 101.896 437.943 100.184 437.271 98.168C436.599 96.12 436.263 93.816 436.263 91.256C436.263 88.728 436.599 86.456 437.271 84.44C437.975 82.392 438.935 80.68 440.151 79.304C441.399 77.896 442.871 76.824 444.567 76.088C446.295 75.32 448.183 74.936 450.231 74.936C451.287 74.936 452.247 75.048 453.111 75.272C453.975 75.496 454.759 75.8 455.463 76.184C456.199 76.536 456.839 76.936 457.383 77.384C457.959 77.832 458.471 78.296 458.919 78.776L456.663 81.32C455.895 80.488 455.015 79.8 454.023 79.256C453.031 78.712 451.767 78.44 450.231 78.44C448.759 78.44 447.415 78.744 446.199 79.352C445.015 79.928 443.991 80.776 443.127 81.896C442.263 82.984 441.591 84.312 441.111 85.88C440.663 87.448 440.439 89.208 440.439 91.16C440.439 93.144 440.647 94.936 441.063 96.536C441.511 98.104 442.135 99.448 442.935 100.568C443.767 101.688 444.791 102.552 446.007 103.16C447.223 103.768 448.599 104.072 450.135 104.072C451.255 104.072 452.295 103.912 453.255 103.592C454.215 103.24 454.999 102.776 455.607 102.2V93.992H449.319V90.68H459.303V103.928C458.311 104.952 456.999 105.816 455.367 106.52C453.767 107.224 451.943 107.576 449.895 107.576ZM473.636 89.384L472.148 94.184H481.556L480.068 89.384C479.524 87.624 478.98 85.88 478.436 84.152C477.924 82.392 477.428 80.6 476.948 78.776H476.756C476.244 80.6 475.732 82.392 475.22 84.152C474.708 85.88 474.18 87.624 473.636 89.384ZM464.036 107L474.644 75.512H479.156L489.764 107H485.54L482.564 97.4H471.14L468.116 107H464.036ZM503.665 107V78.872H493.297V75.512H518.065V78.872H507.697V107H503.665ZM531.199 89.384L529.711 94.184H539.119L537.631 89.384C537.087 87.624 536.543 85.88 535.999 84.152C535.487 82.392 534.991 80.6 534.511 78.776H534.319C533.807 80.6 533.295 82.392 532.783 84.152C532.271 85.88 531.743 87.624 531.199 89.384ZM521.599 107L532.207 75.512H536.719L547.327 107H543.103L540.127 97.4H528.703L525.679 107H521.599ZM565.692 107.576C563.74 107.576 561.932 107.208 560.268 106.472C558.604 105.736 557.148 104.68 555.9 103.304C554.684 101.896 553.724 100.184 553.02 98.168C552.316 96.12 551.964 93.816 551.964 91.256C551.964 88.728 552.316 86.456 553.02 84.44C553.724 82.424 554.7 80.712 555.948 79.304C557.196 77.896 558.684 76.824 560.412 76.088C562.14 75.32 564.028 74.936 566.076 74.936C567.964 74.936 569.628 75.32 571.068 76.088C572.54 76.856 573.74 77.752 574.668 78.776L572.412 81.32C571.58 80.456 570.652 79.768 569.628 79.256C568.604 78.712 567.42 78.44 566.076 78.44C564.572 78.44 563.196 78.744 561.948 79.352C560.732 79.928 559.692 80.776 558.828 81.896C557.964 82.984 557.292 84.312 556.812 85.88C556.332 87.448 556.092 89.208 556.092 91.16C556.092 93.144 556.332 94.936 556.812 96.536C557.292 98.104 557.964 99.448 558.828 100.568C559.692 101.688 560.732 102.552 561.948 103.16C563.196 103.768 564.572 104.072 566.076 104.072C567.516 104.072 568.796 103.768 569.916 103.16C571.068 102.552 572.156 101.688 573.18 100.568L575.436 103.016C574.188 104.456 572.78 105.576 571.212 106.376C569.644 107.176 567.804 107.576 565.692 107.576ZM590.009 107V78.872H579.641V75.512H604.409V78.872H594.041V107H590.009ZM618.79 107V78.872H608.422V75.512H633.19V78.872H622.822V107H618.79ZM647.572 107V78.872H637.204V75.512H661.972V78.872H651.604V107H647.572ZM676.353 107V78.872H665.985V75.512H690.753V78.872H680.385V107H676.353ZM705.134 107V78.872H694.766V75.512H719.534V78.872H709.166V107H705.134ZM733.915 107V78.872H723.547V75.512H748.315V78.872H737.947V107H733.915Z" fill="black"/>
</svg>
