<svg width="697" height="333" viewBox="0 0 697 333" fill="none" xmlns="http://www.w3.org/2000/svg">
<rect width="697" height="333" fill="white"/>
<rect x="0.5" y="0.5" width="696" height="9" fill="#FF7E01" stroke="black"/>
<path d="M105 139C127 148 144 171 144 171" stroke="#CCCCCC" stroke-width="10" stroke-linecap="round"/>
<path d="M145.05 190.286L103 244" stroke="#CCCCCC" stroke-width="10" stroke-linecap="round"/>
<path d="M87.8403 258.766L45.1597 288.234" stroke="#CCCCCC" stroke-width="10" stroke-linecap="round"/>
<path d="M102 263.656C111.873 281.634 118.591 287.044 131.438 293.277" stroke="#CCCCCC" stroke-width="10" stroke-linecap="round"/>
<path d="M159 171C200 130 225 118 265 118" stroke="#CCCCCC" stroke-width="10" stroke-linecap="round"/>
<path d="M161 191C174.106 209.513 183.468 218.282 205 229" stroke="#CCCCCC" stroke-width="10" stroke-linecap="round"/>
<path d="M224 237C248.8 250.972 284.267 258.624 300 250.972" stroke="#CCCCCC" stroke-width="10" stroke-linecap="round"/>
<path d="M316 240.97C354 222.5 394 230.5 416 243.5" stroke="#CCCCCC" stroke-width="10" stroke-linecap="round"/>
<path d="M316 257C359.2 289.8 400.667 270.667 416 257" stroke="#CCCCCC" stroke-width="10" stroke-linecap="round"/>
<path d="M285 117.986L358.239 116.959" stroke="#CCCCCC" stroke-width="10" stroke-linecap="round"/>
<path d="M437 252H462" stroke="#CCCCCC" stroke-width="10" stroke-linecap="round"/>
<path d="M481 252C508 252 546 204 546 181" stroke="#CCCCCC" stroke-width="10" stroke-linecap="round"/>
<path d="M378 118C454 118 515.187 145.848 539 163" stroke="#CCCCCC" stroke-width="10" stroke-linecap="round"/>
<path d="M555 164L600 140" stroke="#CCCCCC" stroke-width="10" stroke-linecap="round"/>
<path d="M616 142C631.5 155 674.5 163 674.5 195.5" stroke="#CCCCCC" stroke-width="10" stroke-linecap="round"/>
<path d="M614 128C637.2 104 663.667 96.6667 674 96" stroke="#CCCCCC" stroke-width="10" stroke-linecap="round"/>
<path d="M471.01 261C464.61 287.4 475.01 302.667 481.01 307" stroke="#CCCCCC" stroke-width="10" stroke-linecap="round"/>
<path d="M501 310C526.452 302.652 561.083 267.65 580 266" stroke="#CCCCCC" stroke-width="10" stroke-linecap="round"/>
<path d="M481 319.608C454.907 331.764 420.79 312.547 399 319.608" stroke="#CCCCCC" stroke-width="10" stroke-linecap="round"/>
<circle cx="151" cy="181" r="5" fill="#555555"/>
<circle cx="97" cy="254" r="5" fill="#555555"/>
<circle cx="214" cy="234" r="5" fill="#555555"/>
<circle cx="308" cy="247" r="5" fill="#555555"/>
<circle cx="426" cy="251" r="5" fill="#555555"/>
<circle cx="472" cy="252" r="5" fill="#555555"/>
<circle cx="490" cy="313" r="5" fill="#555555"/>
<circle cx="275" cy="118" r="5" fill="#555555"/>
<circle cx="368" cy="118" r="5" fill="#555555"/>
<circle cx="546" cy="171" r="5" fill="#555555"/>
<circle cx="608" cy="136" r="5" fill="#555555"/>
<path d="M13.5 29.5H58.5V43.5H13.5V29.5Z" fill="#FFD86E" stroke="black"/>
<path d="M32.261 41V40.116H34.653V34.006H32.794V33.317C33.288 33.2477 33.6997 33.1653 34.029 33.07C34.3583 32.9747 34.6573 32.8533 34.926 32.706H35.719V40.116H37.89V41H32.261Z" fill="black"/>
<path d="M98.5 29.5H134.5V43.5H98.5V29.5Z" fill="#FFD86E" stroke="black"/>
<path d="M113.427 41V40.363C114.129 39.739 114.749 39.1757 115.286 38.673C115.832 38.1703 116.287 37.711 116.651 37.295C117.024 36.8703 117.306 36.476 117.496 36.112C117.687 35.748 117.782 35.3927 117.782 35.046C117.782 34.5693 117.635 34.1793 117.34 33.876C117.046 33.5727 116.591 33.421 115.975 33.421C115.585 33.421 115.221 33.5207 114.883 33.72C114.554 33.9107 114.255 34.1447 113.986 34.422L113.375 33.811C113.748 33.4297 114.147 33.1263 114.571 32.901C115.005 32.667 115.516 32.55 116.105 32.55C116.521 32.55 116.894 32.6107 117.223 32.732C117.561 32.8447 117.847 33.0093 118.081 33.226C118.315 33.434 118.493 33.6897 118.614 33.993C118.744 34.2963 118.809 34.63 118.809 34.994C118.809 35.384 118.714 35.7783 118.523 36.177C118.341 36.567 118.081 36.9743 117.743 37.399C117.405 37.815 117.002 38.2527 116.534 38.712C116.066 39.1627 115.551 39.6437 114.987 40.155C115.247 40.1377 115.507 40.1203 115.767 40.103C116.027 40.0857 116.283 40.077 116.534 40.077H119.264V41H113.427Z" fill="black"/>
<path d="M486.449 250.828L545.997 184.684L556.402 194.051L496.854 260.195L486.449 250.828Z" fill="#FFD86E" stroke="black"/>
<path d="M524.854 225.357C524.291 224.803 523.809 224.27 523.408 223.757C523 223.239 522.653 222.705 522.367 222.155C522.08 221.605 521.844 221.026 521.659 220.416C521.479 219.799 521.333 219.119 521.22 218.377L518.019 221.932L517.333 221.314L521.352 216.851L521.845 217.294C521.943 218.118 522.086 218.853 522.273 219.5C522.461 220.146 522.704 220.75 523.004 221.312C523.297 221.867 523.656 222.4 524.082 222.912C524.507 223.423 525.014 223.961 525.602 224.526L524.854 225.357Z" fill="black"/>
<path d="M467.5 29.5L556.5 29.5V43.5L467.5 43.5V29.5Z" fill="#FFD86E" stroke="black"/>
<path d="M512.126 41C512.161 40.2113 512.234 39.4963 512.347 38.855C512.46 38.205 512.624 37.5897 512.841 37.009C513.058 36.4283 513.331 35.865 513.66 35.319C513.998 34.773 514.405 34.2097 514.882 33.629H510.098V32.706H516.104V33.369C515.558 33.993 515.107 34.591 514.752 35.163C514.397 35.735 514.111 36.32 513.894 36.918C513.677 37.5073 513.521 38.1313 513.426 38.79C513.331 39.4487 513.27 40.1853 513.244 41H512.126Z" fill="black"/>
<path d="M622.189 138.56L658.481 157.637L651.967 170.03L615.675 150.953L622.189 138.56Z" fill="#FFD86E" stroke="black"/>
<path d="M638.931 155.8C639.223 155.953 639.574 156.04 639.984 156.06C640.395 156.08 640.84 155.996 641.321 155.808C641.623 155.047 641.71 154.397 641.581 153.859C641.461 153.326 641.128 152.916 640.583 152.63C640.361 152.513 640.133 152.442 639.901 152.418C639.677 152.398 639.457 152.425 639.242 152.498C639.032 152.563 638.832 152.674 638.643 152.829C638.461 152.988 638.308 153.186 638.183 153.424C637.917 153.93 637.843 154.386 637.963 154.792C638.094 155.194 638.417 155.53 638.931 155.8ZM636.707 159.36C636.255 159.122 635.898 158.842 635.637 158.519C635.384 158.199 635.193 157.864 635.064 157.513L635.908 157.192C635.999 157.466 636.144 157.723 636.34 157.963C636.537 158.203 636.777 158.398 637.061 158.547C637.353 158.701 637.657 158.792 637.974 158.822C638.299 158.856 638.626 158.802 638.954 158.662C639.295 158.517 639.631 158.278 639.963 157.944C640.296 157.609 640.625 157.151 640.951 156.568C640.498 156.702 640.048 156.759 639.598 156.738C639.157 156.722 638.748 156.614 638.372 156.417C638.034 156.239 637.748 156.03 637.513 155.789C637.289 155.544 637.126 155.277 637.023 154.988C636.924 154.691 636.892 154.371 636.926 154.027C636.968 153.686 637.088 153.328 637.285 152.952C637.471 152.599 637.703 152.315 637.983 152.1C638.267 151.877 638.574 151.72 638.905 151.63C639.244 151.544 639.59 151.52 639.942 151.558C640.302 151.6 640.643 151.706 640.965 151.876C641.364 152.085 641.697 152.354 641.966 152.681C642.235 153.008 642.417 153.388 642.513 153.82C642.613 154.245 642.615 154.716 642.519 155.233C642.435 155.747 642.237 156.3 641.927 156.89C641.54 157.627 641.121 158.209 640.67 158.638C640.231 159.064 639.783 159.367 639.326 159.547C638.873 159.72 638.422 159.787 637.973 159.746C637.528 159.699 637.106 159.57 636.707 159.36Z" fill="black"/>
<path d="M653.5 29.5L694.5 29.5V43.5H653.5V29.5Z" fill="#FFD86E" stroke="black"/>
<path d="M676.341 36.97C676.67 36.97 677.021 36.8833 677.394 36.71C677.766 36.5367 678.122 36.255 678.46 35.865C678.373 35.0503 678.148 34.435 677.784 34.019C677.428 33.603 676.943 33.395 676.328 33.395C676.076 33.395 675.842 33.4383 675.626 33.525C675.418 33.6117 675.236 33.7373 675.08 33.902C674.924 34.058 674.798 34.2487 674.703 34.474C674.616 34.6993 674.573 34.9463 674.573 35.215C674.573 35.787 674.72 36.2247 675.015 36.528C675.318 36.8227 675.76 36.97 676.341 36.97ZM676.029 41.156C675.517 41.156 675.071 41.0737 674.69 40.909C674.317 40.7443 673.992 40.5363 673.715 40.285L674.313 39.609C674.521 39.8083 674.768 39.9687 675.054 40.09C675.34 40.2113 675.643 40.272 675.964 40.272C676.293 40.272 676.605 40.2113 676.9 40.09C677.203 39.9687 677.467 39.7693 677.693 39.492C677.927 39.206 678.113 38.8377 678.252 38.387C678.39 37.9363 678.468 37.3773 678.486 36.71C678.148 37.0393 677.775 37.2993 677.368 37.49C676.969 37.6807 676.557 37.776 676.133 37.776C675.751 37.776 675.4 37.724 675.08 37.62C674.768 37.5073 674.499 37.347 674.274 37.139C674.048 36.9223 673.871 36.6537 673.741 36.333C673.619 36.0123 673.559 35.6397 673.559 35.215C673.559 34.8163 673.632 34.4567 673.78 34.136C673.927 33.8067 674.126 33.525 674.378 33.291C674.638 33.057 674.932 32.875 675.262 32.745C675.6 32.615 675.951 32.55 676.315 32.55C676.765 32.55 677.186 32.6323 677.576 32.797C677.966 32.9617 678.304 33.213 678.59 33.551C678.876 33.8803 679.097 34.2963 679.253 34.799C679.417 35.293 679.5 35.8737 679.5 36.541C679.5 37.373 679.4 38.0837 679.201 38.673C679.01 39.2537 678.754 39.7303 678.434 40.103C678.113 40.467 677.745 40.7357 677.329 40.909C676.913 41.0737 676.479 41.156 676.029 41.156Z" fill="black"/>
<path d="M117.499 216.068L139.143 187.301L150.33 195.719L128.686 224.485L117.499 216.068Z" fill="#FFD86E" stroke="black"/>
<path d="M135.663 211.054L135.154 210.671C135.078 209.735 135 208.901 134.922 208.17C134.848 207.431 134.755 206.791 134.641 206.25C134.526 205.697 134.38 205.235 134.204 204.864C134.028 204.493 133.801 204.203 133.524 203.995C133.143 203.708 132.743 203.591 132.323 203.644C131.904 203.697 131.509 203.97 131.139 204.462C130.905 204.773 130.765 205.124 130.721 205.514C130.676 205.892 130.683 206.271 130.743 206.653L129.887 206.774C129.807 206.247 129.804 205.746 129.879 205.271C129.953 204.784 130.167 204.305 130.521 203.834C130.771 203.502 131.044 203.24 131.339 203.05C131.632 202.848 131.936 202.718 132.249 202.661C132.556 202.599 132.867 202.611 133.183 202.697C133.503 202.775 133.809 202.924 134.1 203.143C134.411 203.377 134.669 203.69 134.873 204.082C135.075 204.462 135.245 204.915 135.381 205.44C135.51 205.961 135.617 206.546 135.703 207.196C135.782 207.841 135.856 208.542 135.926 209.3C136.068 209.081 136.211 208.863 136.353 208.645C136.496 208.427 136.643 208.217 136.794 208.017L138.435 205.835L139.173 206.39L135.663 211.054Z" fill="black"/>
<path d="M44.275 281.525L80.9951 255.513L89.0878 266.937L52.3677 292.949L44.275 281.525Z" fill="#FFD86E" stroke="black"/>
<path d="M66.2316 280.064L65.7206 279.343L67.6725 277.96L64.1406 272.975L62.6237 274.049L62.2254 273.487C62.5884 273.145 62.8767 272.84 63.0904 272.572C63.304 272.303 63.4778 272.032 63.6119 271.756L64.259 271.298L68.5423 277.344L70.3139 276.089L70.8249 276.811L66.2316 280.064Z" fill="black"/>
<line x1="13.5" y1="10" x2="13.5" y2="29" stroke="black" stroke-dasharray="2 2"/>
<line x1="58.5" y1="10" x2="58.5" y2="29" stroke="black" stroke-dasharray="2 2"/>
<line x1="98.5" y1="10" x2="98.5" y2="29" stroke="black" stroke-dasharray="2 2"/>
<line x1="134.5" y1="10" x2="134.5" y2="29" stroke="black" stroke-dasharray="2 2"/>
<line x1="467.5" y1="10" x2="467.5" y2="29" stroke="black" stroke-dasharray="2 2"/>
<line x1="556.5" y1="10" x2="556.5" y2="29" stroke="black" stroke-dasharray="2 2"/>
<line x1="653.5" y1="10" x2="653.5" y2="29" stroke="black" stroke-dasharray="2 2"/>
<line x1="694.5" y1="10" x2="694.5" y2="29" stroke="black" stroke-dasharray="2 2"/>
<path d="M143.591 189.428C143.307 190.206 143.707 191.067 144.485 191.352C145.263 191.637 146.124 191.237 146.409 190.459L143.591 189.428ZM151.018 182L149.891 182.99L151.018 182ZM213.2 234.624L213.806 233.252L213.2 234.624ZM308 247.5L307.121 246.285L307.121 246.285L308 247.5ZM426 250.5L425.073 251.679C425.158 251.746 425.249 251.803 425.346 251.85L426 250.5ZM471.457 252L471.832 250.547L471.457 252ZM486.232 253.482C487.051 253.354 487.61 252.586 487.482 251.768C487.354 250.949 486.586 250.39 485.768 250.518L486.232 253.482ZM145 189.943C146.409 190.459 146.409 190.459 146.409 190.459C146.409 190.459 146.409 190.459 146.409 190.459C146.409 190.459 146.409 190.459 146.409 190.458C146.409 190.457 146.41 190.456 146.41 190.454C146.412 190.45 146.414 190.444 146.417 190.435C146.424 190.417 146.434 190.39 146.448 190.354C146.474 190.283 146.515 190.177 146.567 190.041C146.672 189.771 146.825 189.385 147.016 188.929C147.399 188.011 147.924 186.832 148.508 185.742C149.113 184.611 149.701 183.728 150.178 183.279C150.425 183.047 150.479 183.088 150.347 183.108C150.255 183.121 150.135 183.113 150.02 183.065C149.913 183.022 149.874 182.971 149.891 182.99L152.145 181.01C151.591 180.38 150.808 180.007 149.91 180.14C149.148 180.252 148.543 180.698 148.123 181.094C147.266 181.9 146.487 183.159 145.863 184.326C145.216 185.534 144.649 186.81 144.247 187.773C144.045 188.256 143.882 188.667 143.77 188.957C143.713 189.103 143.67 189.218 143.639 189.299C143.624 189.339 143.613 189.37 143.605 189.392C143.601 189.403 143.597 189.411 143.595 189.417C143.594 189.42 143.593 189.423 143.593 189.424C143.592 189.425 143.592 189.426 143.592 189.427C143.592 189.427 143.592 189.427 143.592 189.427C143.591 189.428 143.591 189.428 145 189.943ZM149.891 182.99C160.799 195.406 183.128 222.977 212.594 235.996L213.806 233.252C185.074 220.557 163.201 193.594 152.145 181.01L149.891 182.99ZM212.594 235.996C229.982 243.679 247.948 251.208 264.539 254.664C281.124 258.118 296.638 257.567 308.879 248.715L307.121 246.285C295.883 254.411 281.397 255.111 265.151 251.727C248.912 248.344 231.218 240.945 213.806 233.252L212.594 235.996ZM308.879 248.715C326.684 235.84 350.489 232.445 372.597 234.393C394.728 236.343 414.81 243.616 425.073 251.679L426.927 249.321C416.054 240.778 395.343 233.385 372.86 231.404C350.355 229.421 325.728 232.829 307.121 246.285L308.879 248.715ZM425.346 251.85C434.032 256.061 441.425 255.242 448.616 254.042C455.825 252.84 462.723 251.298 471.083 253.453L471.832 250.547C462.734 248.202 455.153 249.91 448.123 251.083C441.075 252.258 434.468 252.939 426.654 249.15L425.346 251.85ZM471.083 253.453C474.073 254.223 477.907 254.208 480.881 254.029C482.391 253.938 483.723 253.802 484.678 253.689C485.156 253.632 485.541 253.581 485.808 253.544C485.942 253.525 486.046 253.51 486.117 253.499C486.153 253.494 486.181 253.49 486.2 253.487C486.21 253.485 486.218 253.484 486.223 253.483C486.226 253.483 486.228 253.483 486.229 253.482C486.23 253.482 486.231 253.482 486.231 253.482C486.231 253.482 486.232 253.482 486.232 253.482C486.232 253.482 486.232 253.482 486 252C485.768 250.518 485.768 250.518 485.768 250.518C485.768 250.518 485.768 250.518 485.768 250.518C485.768 250.518 485.768 250.518 485.767 250.518C485.767 250.518 485.766 250.518 485.764 250.519C485.761 250.519 485.755 250.52 485.747 250.521C485.732 250.524 485.708 250.527 485.677 250.532C485.613 250.541 485.518 250.555 485.393 250.573C485.145 250.607 484.78 250.656 484.324 250.71C483.412 250.818 482.14 250.948 480.701 251.034C477.778 251.21 474.341 251.194 471.832 250.547L471.083 253.453Z" fill="#06A284"/>
<path d="M546 184C546 184 542.216 174.667 546 171.723C567.5 155 594 142.851 608 136C613.155 133.478 620 140.5 620 140.5" stroke="#06A284" stroke-width="3" stroke-linecap="round"/>
<line x1="265.5" y1="35.5" x2="378.504" y2="35.5" stroke="#2777FF" stroke-width="5" stroke-linecap="round"/>
<line x1="135" y1="35.5" x2="467" y2="35.5" stroke="#06A284" stroke-width="3"/>
<line x1="556.997" y1="35.75" x2="653.001" y2="35.75" stroke="#06A284" stroke-width="3"/>
<path d="M309 249C345 283 379.5 285.5 424.5 251.5" stroke="#2777FF" stroke-width="3" stroke-linecap="round"/>
</svg>
