<svg width="697" height="333" viewBox="0 0 697 333" fill="none" xmlns="http://www.w3.org/2000/svg">
<rect width="697" height="333" fill="white"/>
<rect x="0.5" y="0.5" width="696" height="9" fill="#FF7E01" stroke="black"/>
<path d="M105 139C127 148 144 171 144 171" stroke="#CCCCCC" stroke-width="10" stroke-linecap="round"/>
<path d="M145.05 190.286L103 244" stroke="#CCCCCC" stroke-width="10" stroke-linecap="round"/>
<path d="M87.8403 258.766L45.1597 288.234" stroke="#CCCCCC" stroke-width="10" stroke-linecap="round"/>
<path d="M102 263.656C111.873 281.634 118.591 287.044 131.438 293.277" stroke="#CCCCCC" stroke-width="10" stroke-linecap="round"/>
<path d="M159 171C200 130 225 118 265 118" stroke="#CCCCCC" stroke-width="10" stroke-linecap="round"/>
<path d="M161 191C174.106 209.513 183.468 218.282 205 229" stroke="#CCCCCC" stroke-width="10" stroke-linecap="round"/>
<path d="M224 237C248.8 250.972 284.267 258.624 300 250.972" stroke="#CCCCCC" stroke-width="10" stroke-linecap="round"/>
<path d="M316 240.97C354 222.5 394 230.5 416 243.5" stroke="#CCCCCC" stroke-width="10" stroke-linecap="round"/>
<path d="M316 257C359.2 289.8 400.667 270.667 416 257" stroke="#CCCCCC" stroke-width="10" stroke-linecap="round"/>
<path d="M285 117.986L358.239 116.959" stroke="#CCCCCC" stroke-width="10" stroke-linecap="round"/>
<path d="M437 252H462" stroke="#CCCCCC" stroke-width="10" stroke-linecap="round"/>
<path d="M481 252C508 252 546 204 546 181" stroke="#CCCCCC" stroke-width="10" stroke-linecap="round"/>
<path d="M378 118C454 118 515.187 145.848 539 163" stroke="#CCCCCC" stroke-width="10" stroke-linecap="round"/>
<path d="M555 164L600 140" stroke="#CCCCCC" stroke-width="10" stroke-linecap="round"/>
<path d="M616 142C631.5 155 674.5 163 674.5 195.5" stroke="#CCCCCC" stroke-width="10" stroke-linecap="round"/>
<path d="M614 128C637.2 104 663.667 96.6667 674 96" stroke="#CCCCCC" stroke-width="10" stroke-linecap="round"/>
<path d="M471.01 261C464.61 287.4 475.01 302.667 481.01 307" stroke="#CCCCCC" stroke-width="10" stroke-linecap="round"/>
<path d="M501 310C526.452 302.652 561.083 267.65 580 266" stroke="#CCCCCC" stroke-width="10" stroke-linecap="round"/>
<path d="M481 319.608C454.907 331.764 420.79 312.547 399 319.608" stroke="#CCCCCC" stroke-width="10" stroke-linecap="round"/>
<circle cx="151" cy="181" r="5" fill="#555555"/>
<circle cx="97" cy="254" r="5" fill="#555555"/>
<circle cx="214" cy="234" r="5" fill="#555555"/>
<circle cx="309" cy="249" r="5" fill="#555555"/>
<circle cx="425" cy="252" r="5" fill="#555555"/>
<circle cx="472" cy="252" r="5" fill="#555555"/>
<circle cx="490" cy="313" r="5" fill="#555555"/>
<circle cx="275" cy="118" r="5" fill="#555555"/>
<circle cx="368" cy="118" r="5" fill="#555555"/>
<circle cx="546" cy="171" r="5" fill="#555555"/>
<circle cx="608" cy="136" r="5" fill="#555555"/>
<path d="M13.5 29.5H58.5V43.5H13.5V29.5Z" fill="#FFD86E" stroke="black"/>
<path d="M32.261 41V40.116H34.653V34.006H32.794V33.317C33.288 33.2477 33.6997 33.1653 34.029 33.07C34.3583 32.9747 34.6573 32.8533 34.926 32.706H35.719V40.116H37.89V41H32.261Z" fill="black"/>
<path d="M98.5 29.5H134.5V43.5H98.5V29.5Z" fill="#FFD86E" stroke="black"/>
<path d="M113.427 41V40.363C114.129 39.739 114.749 39.1757 115.286 38.673C115.832 38.1703 116.287 37.711 116.651 37.295C117.024 36.8703 117.306 36.476 117.496 36.112C117.687 35.748 117.782 35.3927 117.782 35.046C117.782 34.5693 117.635 34.1793 117.34 33.876C117.046 33.5727 116.591 33.421 115.975 33.421C115.585 33.421 115.221 33.5207 114.883 33.72C114.554 33.9107 114.255 34.1447 113.986 34.422L113.375 33.811C113.748 33.4297 114.147 33.1263 114.571 32.901C115.005 32.667 115.516 32.55 116.105 32.55C116.521 32.55 116.894 32.6107 117.223 32.732C117.561 32.8447 117.847 33.0093 118.081 33.226C118.315 33.434 118.493 33.6897 118.614 33.993C118.744 34.2963 118.809 34.63 118.809 34.994C118.809 35.384 118.714 35.7783 118.523 36.177C118.341 36.567 118.081 36.9743 117.743 37.399C117.405 37.815 117.002 38.2527 116.534 38.712C116.066 39.1627 115.551 39.6437 114.987 40.155C115.247 40.1377 115.507 40.1203 115.767 40.103C116.027 40.0857 116.283 40.077 116.534 40.077H119.264V41H113.427Z" fill="black"/>
<path d="M510.268 298.103L530.1 284.279L538.105 295.764L518.274 309.588L510.268 298.103Z" fill="#FFD86E" stroke="black"/>
<path d="M526.825 300.073C526.441 300.34 526.061 300.537 525.683 300.663C525.313 300.783 524.964 300.836 524.637 300.821C524.305 300.799 523.999 300.717 523.72 300.573C523.447 300.425 523.217 300.216 523.029 299.946C522.865 299.711 522.762 299.472 522.718 299.227C522.674 298.983 522.668 298.739 522.699 298.496C522.73 298.252 522.794 298.018 522.89 297.792C522.989 297.554 523.101 297.329 523.226 297.114L523.196 297.072C522.788 297.092 522.391 297.046 522.007 296.934C521.624 296.81 521.307 296.566 521.054 296.204C520.871 295.941 520.754 295.668 520.705 295.385C520.663 295.097 520.683 294.815 520.763 294.536C520.846 294.246 520.986 293.969 521.183 293.705C521.379 293.442 521.63 293.203 521.936 292.99C522.27 292.757 522.597 292.598 522.918 292.512C523.24 292.414 523.547 292.385 523.839 292.424C524.133 292.452 524.405 292.547 524.656 292.71C524.91 292.861 525.128 293.068 525.311 293.331C525.534 293.651 525.642 294.025 525.634 294.453C525.628 294.869 525.552 295.276 525.407 295.673L525.436 295.716C525.686 295.68 525.929 295.658 526.167 295.65C526.405 295.643 526.632 295.665 526.847 295.716C527.062 295.767 527.265 295.862 527.458 296.002C527.653 296.131 527.835 296.316 528.004 296.557C528.182 296.813 528.291 297.091 528.331 297.391C528.378 297.685 528.355 297.986 528.263 298.294C528.171 298.601 528.004 298.907 527.763 299.213C527.529 299.513 527.216 299.8 526.825 300.073ZM524.682 295.862C524.964 295.053 524.931 294.4 524.584 293.902C524.346 293.561 524.03 293.358 523.637 293.294C523.239 293.223 522.816 293.343 522.368 293.656C521.984 293.923 521.744 294.238 521.648 294.601C521.552 294.964 521.621 295.312 521.854 295.646C521.998 295.852 522.168 295.998 522.364 296.083C522.556 296.161 522.773 296.199 523.016 296.199C523.259 296.199 523.519 296.171 523.797 296.114C524.077 296.046 524.372 295.962 524.682 295.862ZM526.393 299.407C526.905 299.05 527.219 298.668 527.336 298.259C527.452 297.85 527.387 297.468 527.139 297.113C526.975 296.878 526.782 296.722 526.559 296.645C526.339 296.556 526.093 296.521 525.821 296.541C525.55 296.561 525.253 296.62 524.931 296.718C524.61 296.804 524.266 296.902 523.898 297.01C523.693 297.428 523.562 297.831 523.505 298.219C523.443 298.6 523.531 298.962 523.769 299.303C524.037 299.687 524.408 299.893 524.882 299.922C525.363 299.945 525.867 299.774 526.393 299.407Z" fill="black"/>
<path d="M581.5 29.5H605.674V43.5H581.5V29.5Z" fill="#FFD86E" stroke="black"/>
<path d="M593.777 41.156C593.309 41.156 592.884 41.0997 592.503 40.987C592.13 40.8743 591.814 40.7183 591.554 40.519C591.294 40.311 591.09 40.0683 590.943 39.791C590.804 39.5137 590.735 39.2103 590.735 38.881C590.735 38.595 590.787 38.3393 590.891 38.114C590.995 37.8887 591.129 37.685 591.294 37.503C591.458 37.321 591.645 37.165 591.853 37.035C592.069 36.8963 592.29 36.775 592.516 36.671V36.619C592.169 36.4023 591.87 36.138 591.619 35.826C591.376 35.5053 591.255 35.124 591.255 34.682C591.255 34.3613 591.315 34.071 591.437 33.811C591.567 33.551 591.744 33.33 591.97 33.148C592.204 32.9573 592.477 32.81 592.789 32.706C593.101 32.602 593.443 32.55 593.816 32.55C594.223 32.55 594.583 32.6063 594.895 32.719C595.215 32.823 595.484 32.9747 595.701 33.174C595.926 33.3647 596.095 33.5987 596.208 33.876C596.329 34.1447 596.39 34.4393 596.39 34.76C596.39 35.15 596.264 35.5183 596.013 35.865C595.77 36.203 595.475 36.4933 595.129 36.736V36.788C595.354 36.9007 595.566 37.022 595.766 37.152C595.965 37.282 596.138 37.4293 596.286 37.594C596.433 37.7587 596.546 37.9537 596.624 38.179C596.71 38.3957 596.754 38.6513 596.754 38.946C596.754 39.258 596.684 39.5483 596.546 39.817C596.416 40.0857 596.225 40.3197 595.974 40.519C595.722 40.7183 595.41 40.8743 595.038 40.987C594.674 41.0997 594.253 41.156 593.777 41.156ZM594.427 36.476C595.12 35.9733 595.467 35.4187 595.467 34.812C595.467 34.396 595.324 34.0493 595.038 33.772C594.752 33.486 594.336 33.343 593.79 33.343C593.322 33.343 592.945 33.4643 592.659 33.707C592.373 33.9497 592.23 34.2747 592.23 34.682C592.23 34.9333 592.286 35.15 592.399 35.332C592.511 35.5053 592.667 35.6613 592.867 35.8C593.066 35.9387 593.296 36.0643 593.556 36.177C593.824 36.281 594.115 36.3807 594.427 36.476ZM593.803 40.363C594.427 40.363 594.903 40.2287 595.233 39.96C595.562 39.6913 595.727 39.3403 595.727 38.907C595.727 38.621 595.657 38.3827 595.519 38.192C595.389 37.9927 595.207 37.8237 594.973 37.685C594.739 37.5463 594.461 37.425 594.141 37.321C593.829 37.2083 593.491 37.0913 593.127 36.97C592.719 37.1953 592.381 37.451 592.113 37.737C591.844 38.0143 591.71 38.361 591.71 38.777C591.71 39.245 591.896 39.6263 592.269 39.921C592.65 40.2157 593.161 40.363 593.803 40.363Z" fill="black"/>
<path d="M165.5 29.5H232.5V43.5H165.5V29.5Z" fill="#FFD86E" stroke="black"/>
<path d="M197.34 41.156C196.62 41.156 196.018 41.039 195.533 40.805C195.047 40.5623 194.653 40.2893 194.35 39.986L194.896 39.284C195.173 39.544 195.502 39.7737 195.884 39.973C196.274 40.1723 196.737 40.272 197.275 40.272C197.561 40.272 197.825 40.2373 198.068 40.168C198.31 40.09 198.518 39.986 198.692 39.856C198.874 39.726 199.012 39.57 199.108 39.388C199.212 39.1973 199.264 38.985 199.264 38.751C199.264 38.5083 199.207 38.2873 199.095 38.088C198.991 37.88 198.817 37.7023 198.575 37.555C198.332 37.4077 198.02 37.295 197.639 37.217C197.257 37.139 196.794 37.1 196.248 37.1V36.281C196.742 36.281 197.158 36.242 197.496 36.164C197.842 36.086 198.124 35.9777 198.341 35.839C198.557 35.7003 198.713 35.5357 198.809 35.345C198.913 35.1543 198.965 34.9507 198.965 34.734C198.965 34.3267 198.809 34.006 198.497 33.772C198.193 33.538 197.786 33.421 197.275 33.421C196.885 33.421 196.516 33.499 196.17 33.655C195.823 33.811 195.511 34.0147 195.234 34.266L194.662 33.59C195.008 33.2867 195.403 33.0397 195.845 32.849C196.287 32.6497 196.776 32.55 197.314 32.55C197.704 32.55 198.063 32.5977 198.393 32.693C198.731 32.7883 199.021 32.927 199.264 33.109C199.515 33.2823 199.71 33.499 199.849 33.759C199.987 34.019 200.057 34.318 200.057 34.656C200.057 35.1587 199.892 35.5703 199.563 35.891C199.233 36.2117 198.809 36.4587 198.289 36.632V36.684C198.566 36.7447 198.826 36.8357 199.069 36.957C199.32 37.0697 199.541 37.217 199.732 37.399C199.922 37.5723 200.07 37.776 200.174 38.01C200.286 38.244 200.343 38.504 200.343 38.79C200.343 39.154 200.265 39.4833 200.109 39.778C199.953 40.0727 199.736 40.324 199.459 40.532C199.19 40.7313 198.874 40.8873 198.51 41C198.146 41.104 197.756 41.156 197.34 41.156Z" fill="black"/>
<path d="M324.5 227.5H411.5V241.5H324.5V227.5Z" fill="#FFD86E" stroke="black"/>
<path d="M364.741 239.156C364.368 239.156 364.03 239.121 363.727 239.052C363.432 238.991 363.164 238.909 362.921 238.805C362.687 238.701 362.47 238.584 362.271 238.454C362.08 238.315 361.907 238.172 361.751 238.025L362.284 237.323C362.423 237.444 362.57 237.566 362.726 237.687C362.882 237.8 363.051 237.899 363.233 237.986C363.424 238.073 363.632 238.142 363.857 238.194C364.091 238.246 364.347 238.272 364.624 238.272C364.919 238.272 365.192 238.229 365.443 238.142C365.703 238.047 365.928 237.917 366.119 237.752C366.31 237.587 366.457 237.388 366.561 237.154C366.674 236.92 366.73 236.66 366.73 236.374C366.73 235.802 366.544 235.356 366.171 235.035C365.807 234.714 365.313 234.554 364.689 234.554C364.342 234.554 364.048 234.597 363.805 234.684C363.562 234.771 363.294 234.896 362.999 235.061L362.427 234.697L362.7 230.706H367.393V231.629H363.649L363.428 234.086C363.671 233.982 363.905 233.9 364.13 233.839C364.364 233.778 364.641 233.748 364.962 233.748C365.361 233.748 365.733 233.8 366.08 233.904C366.427 234.008 366.726 234.168 366.977 234.385C367.237 234.593 367.441 234.862 367.588 235.191C367.735 235.512 367.809 235.897 367.809 236.348C367.809 236.799 367.722 237.197 367.549 237.544C367.384 237.891 367.159 238.185 366.873 238.428C366.587 238.662 366.258 238.844 365.885 238.974C365.521 239.095 365.14 239.156 364.741 239.156Z" fill="black"/>
<path d="M439.5 245.5H458.5V259.5H439.5V245.5Z" fill="#FFD86E" stroke="black"/>
<path d="M449.587 257.156C449.137 257.156 448.716 257.074 448.326 256.909C447.945 256.744 447.611 256.497 447.325 256.168C447.039 255.83 446.814 255.414 446.649 254.92C446.493 254.417 446.415 253.832 446.415 253.165C446.415 252.333 446.511 251.627 446.701 251.046C446.892 250.457 447.148 249.98 447.468 249.616C447.789 249.243 448.157 248.975 448.573 248.81C448.998 248.637 449.436 248.55 449.886 248.55C450.398 248.55 450.84 248.637 451.212 248.81C451.594 248.975 451.923 249.183 452.2 249.434L451.602 250.097C451.386 249.898 451.134 249.742 450.848 249.629C450.562 249.508 450.263 249.447 449.951 249.447C449.622 249.447 449.306 249.508 449.002 249.629C448.699 249.75 448.43 249.95 448.196 250.227C447.971 250.504 447.785 250.873 447.637 251.332C447.499 251.783 447.425 252.342 447.416 253.009C447.754 252.68 448.127 252.42 448.534 252.229C448.942 252.03 449.353 251.93 449.769 251.93C450.151 251.93 450.497 251.986 450.809 252.099C451.13 252.203 451.403 252.363 451.628 252.58C451.862 252.788 452.04 253.052 452.161 253.373C452.291 253.694 452.356 254.066 452.356 254.491C452.356 254.89 452.278 255.254 452.122 255.583C451.975 255.904 451.776 256.181 451.524 256.415C451.273 256.649 450.978 256.831 450.64 256.961C450.311 257.091 449.96 257.156 449.587 257.156ZM449.587 256.311C449.83 256.311 450.06 256.268 450.276 256.181C450.493 256.094 450.679 255.973 450.835 255.817C450.991 255.652 451.113 255.462 451.199 255.245C451.295 255.02 451.342 254.768 451.342 254.491C451.342 253.919 451.191 253.486 450.887 253.191C450.584 252.888 450.146 252.736 449.574 252.736C449.245 252.736 448.89 252.823 448.508 252.996C448.136 253.169 447.785 253.455 447.455 253.854C447.533 254.66 447.754 255.271 448.118 255.687C448.491 256.103 448.981 256.311 449.587 256.311Z" fill="black"/>
<path d="M486.449 250.828L545.998 184.684L556.402 194.051L496.854 260.195L486.449 250.828Z" fill="#FFD86E" stroke="black"/>
<path d="M524.854 225.357C524.291 224.803 523.809 224.27 523.408 223.757C523 223.239 522.653 222.705 522.367 222.155C522.08 221.605 521.844 221.026 521.659 220.416C521.479 219.799 521.333 219.119 521.22 218.377L518.019 221.932L517.333 221.314L521.352 216.851L521.845 217.294C521.943 218.118 522.086 218.853 522.273 219.5C522.461 220.146 522.704 220.75 523.004 221.312C523.297 221.867 523.656 222.4 524.082 222.912C524.507 223.423 525.014 223.961 525.602 224.526L524.854 225.357Z" fill="black"/>
<path d="M467.5 29.5L556.5 29.5V43.5L467.5 43.5V29.5Z" fill="#FFD86E" stroke="black"/>
<path d="M512.126 41C512.161 40.2113 512.234 39.4963 512.347 38.855C512.46 38.205 512.624 37.5897 512.841 37.009C513.058 36.4283 513.331 35.865 513.66 35.319C513.998 34.773 514.405 34.2097 514.882 33.629H510.098V32.706H516.104V33.369C515.558 33.993 515.107 34.591 514.752 35.163C514.397 35.735 514.111 36.32 513.894 36.918C513.677 37.5073 513.521 38.1313 513.426 38.79C513.331 39.4487 513.27 40.1853 513.244 41H512.126Z" fill="black"/>
<path d="M622.189 138.56L658.481 157.637L651.967 170.03L615.675 150.953L622.189 138.56Z" fill="#FFD86E" stroke="black"/>
<path d="M638.931 155.8C639.223 155.953 639.574 156.04 639.984 156.06C640.395 156.08 640.84 155.996 641.321 155.808C641.623 155.047 641.71 154.397 641.582 153.859C641.461 153.326 641.128 152.916 640.583 152.63C640.361 152.513 640.133 152.442 639.901 152.418C639.677 152.398 639.457 152.425 639.243 152.498C639.032 152.563 638.832 152.674 638.643 152.829C638.461 152.988 638.308 153.186 638.183 153.424C637.917 153.93 637.843 154.386 637.963 154.792C638.095 155.194 638.417 155.53 638.931 155.8ZM636.707 159.36C636.255 159.122 635.898 158.842 635.637 158.519C635.384 158.199 635.193 157.864 635.064 157.513L635.908 157.192C636 157.466 636.144 157.723 636.34 157.963C636.537 158.203 636.777 158.398 637.061 158.547C637.353 158.701 637.657 158.792 637.974 158.822C638.299 158.856 638.626 158.802 638.954 158.662C639.295 158.517 639.631 158.278 639.963 157.944C640.296 157.609 640.625 157.151 640.951 156.568C640.498 156.702 640.048 156.759 639.598 156.738C639.157 156.722 638.748 156.614 638.372 156.417C638.035 156.239 637.748 156.03 637.513 155.789C637.289 155.544 637.126 155.277 637.023 154.988C636.924 154.691 636.892 154.371 636.926 154.027C636.968 153.686 637.088 153.328 637.285 152.952C637.471 152.599 637.703 152.315 637.983 152.1C638.267 151.877 638.574 151.72 638.905 151.63C639.244 151.544 639.59 151.52 639.942 151.558C640.302 151.6 640.643 151.706 640.965 151.876C641.364 152.085 641.697 152.354 641.966 152.681C642.235 153.008 642.417 153.388 642.513 153.82C642.613 154.245 642.615 154.716 642.519 155.233C642.435 155.747 642.238 156.3 641.927 156.89C641.54 157.627 641.121 158.209 640.67 158.638C640.231 159.064 639.783 159.367 639.326 159.547C638.873 159.72 638.422 159.787 637.973 159.746C637.528 159.699 637.106 159.57 636.707 159.36Z" fill="black"/>
<path d="M653.5 29.5L694.5 29.5V43.5H653.5V29.5Z" fill="#FFD86E" stroke="black"/>
<path d="M676.341 36.97C676.67 36.97 677.021 36.8833 677.394 36.71C677.766 36.5367 678.122 36.255 678.46 35.865C678.373 35.0503 678.148 34.435 677.784 34.019C677.428 33.603 676.943 33.395 676.328 33.395C676.076 33.395 675.842 33.4383 675.626 33.525C675.418 33.6117 675.236 33.7373 675.08 33.902C674.924 34.058 674.798 34.2487 674.703 34.474C674.616 34.6993 674.573 34.9463 674.573 35.215C674.573 35.787 674.72 36.2247 675.015 36.528C675.318 36.8227 675.76 36.97 676.341 36.97ZM676.029 41.156C675.517 41.156 675.071 41.0737 674.69 40.909C674.317 40.7443 673.992 40.5363 673.715 40.285L674.313 39.609C674.521 39.8083 674.768 39.9687 675.054 40.09C675.34 40.2113 675.643 40.272 675.964 40.272C676.293 40.272 676.605 40.2113 676.9 40.09C677.203 39.9687 677.467 39.7693 677.693 39.492C677.927 39.206 678.113 38.8377 678.252 38.387C678.39 37.9363 678.468 37.3773 678.486 36.71C678.148 37.0393 677.775 37.2993 677.368 37.49C676.969 37.6807 676.557 37.776 676.133 37.776C675.751 37.776 675.4 37.724 675.08 37.62C674.768 37.5073 674.499 37.347 674.274 37.139C674.048 36.9223 673.871 36.6537 673.741 36.333C673.619 36.0123 673.559 35.6397 673.559 35.215C673.559 34.8163 673.632 34.4567 673.78 34.136C673.927 33.8067 674.126 33.525 674.378 33.291C674.638 33.057 674.932 32.875 675.262 32.745C675.6 32.615 675.951 32.55 676.315 32.55C676.765 32.55 677.186 32.6323 677.576 32.797C677.966 32.9617 678.304 33.213 678.59 33.551C678.876 33.8803 679.097 34.2963 679.253 34.799C679.417 35.293 679.5 35.8737 679.5 36.541C679.5 37.373 679.4 38.0837 679.201 38.673C679.01 39.2537 678.754 39.7303 678.434 40.103C678.113 40.467 677.745 40.7357 677.329 40.909C676.913 41.0737 676.479 41.156 676.029 41.156Z" fill="black"/>
<path d="M432.5 29.5H451.5V43.5H432.5V29.5Z" fill="#FFD86E" stroke="black"/>
<path d="M442.587 41.156C442.137 41.156 441.716 41.0737 441.326 40.909C440.945 40.7443 440.611 40.4973 440.325 40.168C440.039 39.83 439.814 39.414 439.649 38.92C439.493 38.4173 439.415 37.8323 439.415 37.165C439.415 36.333 439.511 35.6267 439.701 35.046C439.892 34.4567 440.148 33.98 440.468 33.616C440.789 33.2433 441.157 32.9747 441.573 32.81C441.998 32.6367 442.436 32.55 442.886 32.55C443.398 32.55 443.84 32.6367 444.212 32.81C444.594 32.9747 444.923 33.1827 445.2 33.434L444.602 34.097C444.386 33.8977 444.134 33.7417 443.848 33.629C443.562 33.5077 443.263 33.447 442.951 33.447C442.622 33.447 442.306 33.5077 442.002 33.629C441.699 33.7503 441.43 33.9497 441.196 34.227C440.971 34.5043 440.785 34.8727 440.637 35.332C440.499 35.7827 440.425 36.3417 440.416 37.009C440.754 36.6797 441.127 36.4197 441.534 36.229C441.942 36.0297 442.353 35.93 442.769 35.93C443.151 35.93 443.497 35.9863 443.809 36.099C444.13 36.203 444.403 36.3633 444.628 36.58C444.862 36.788 445.04 37.0523 445.161 37.373C445.291 37.6937 445.356 38.0663 445.356 38.491C445.356 38.8897 445.278 39.2537 445.122 39.583C444.975 39.9037 444.776 40.181 444.524 40.415C444.273 40.649 443.978 40.831 443.64 40.961C443.311 41.091 442.96 41.156 442.587 41.156ZM442.587 40.311C442.83 40.311 443.06 40.2677 443.276 40.181C443.493 40.0943 443.679 39.973 443.835 39.817C443.991 39.6523 444.113 39.4617 444.199 39.245C444.295 39.0197 444.342 38.7683 444.342 38.491C444.342 37.919 444.191 37.4857 443.887 37.191C443.584 36.8877 443.146 36.736 442.574 36.736C442.245 36.736 441.89 36.8227 441.508 36.996C441.136 37.1693 440.785 37.4553 440.455 37.854C440.533 38.66 440.754 39.271 441.118 39.687C441.491 40.103 441.981 40.311 442.587 40.311Z" fill="black"/>
<path d="M298.5 49.5H385.5V63.5H298.5V49.5Z" fill="#FFD86E" stroke="black"/>
<path d="M339.807 61V58.712H335.53V57.997L339.677 52.706H340.821V57.854H342.108V58.712H340.821V61H339.807ZM336.713 57.854H339.807V55.28C339.816 55.0547 339.824 54.812 339.833 54.552C339.842 54.2833 339.855 54.0363 339.872 53.811H339.807C339.677 54.0103 339.538 54.214 339.391 54.422C339.244 54.6213 339.101 54.8207 338.962 55.02L336.713 57.854Z" fill="black"/>
<path d="M324.5 258.5H411.5V272.5H324.5V258.5Z" fill="#FFD86E" stroke="black"/>
<path d="M365.807 270V267.712H361.53V266.997L365.677 261.706H366.821V266.854H368.108V267.712H366.821V270H365.807ZM362.713 266.854H365.807V264.28C365.816 264.055 365.824 263.812 365.833 263.552C365.842 263.283 365.855 263.036 365.872 262.811H365.807C365.677 263.01 365.538 263.214 365.391 263.422C365.244 263.621 365.101 263.821 364.962 264.02L362.713 266.854Z" fill="black"/>
<path d="M332.5 29.5H419.5V43.5H332.5V29.5Z" fill="#FFD86E" stroke="black"/>
<path d="M372.741 41.156C372.368 41.156 372.03 41.1213 371.727 41.052C371.432 40.9913 371.164 40.909 370.921 40.805C370.687 40.701 370.47 40.584 370.271 40.454C370.08 40.3153 369.907 40.1723 369.751 40.025L370.284 39.323C370.423 39.4443 370.57 39.5657 370.726 39.687C370.882 39.7997 371.051 39.8993 371.233 39.986C371.424 40.0727 371.632 40.142 371.857 40.194C372.091 40.246 372.347 40.272 372.624 40.272C372.919 40.272 373.192 40.2287 373.443 40.142C373.703 40.0467 373.928 39.9167 374.119 39.752C374.31 39.5873 374.457 39.388 374.561 39.154C374.674 38.92 374.73 38.66 374.73 38.374C374.73 37.802 374.544 37.3557 374.171 37.035C373.807 36.7143 373.313 36.554 372.689 36.554C372.342 36.554 372.048 36.5973 371.805 36.684C371.562 36.7707 371.294 36.8963 370.999 37.061L370.427 36.697L370.7 32.706H375.393V33.629H371.649L371.428 36.086C371.671 35.982 371.905 35.8997 372.13 35.839C372.364 35.7783 372.641 35.748 372.962 35.748C373.361 35.748 373.733 35.8 374.08 35.904C374.427 36.008 374.726 36.1683 374.977 36.385C375.237 36.593 375.441 36.8617 375.588 37.191C375.735 37.5117 375.809 37.8973 375.809 38.348C375.809 38.7987 375.722 39.1973 375.549 39.544C375.384 39.8907 375.159 40.1853 374.873 40.428C374.587 40.662 374.258 40.844 373.885 40.974C373.521 41.0953 373.14 41.156 372.741 41.156Z" fill="black"/>
<path d="M288.5 111.5H355.5V125.5H288.5V111.5Z" fill="#FFD86E" stroke="black"/>
<path d="M320.34 123.156C319.62 123.156 319.018 123.039 318.533 122.805C318.047 122.562 317.653 122.289 317.35 121.986L317.896 121.284C318.173 121.544 318.502 121.774 318.884 121.973C319.274 122.172 319.737 122.272 320.275 122.272C320.561 122.272 320.825 122.237 321.068 122.168C321.31 122.09 321.518 121.986 321.692 121.856C321.874 121.726 322.012 121.57 322.108 121.388C322.212 121.197 322.264 120.985 322.264 120.751C322.264 120.508 322.207 120.287 322.095 120.088C321.991 119.88 321.817 119.702 321.575 119.555C321.332 119.408 321.02 119.295 320.639 119.217C320.257 119.139 319.794 119.1 319.248 119.1V118.281C319.742 118.281 320.158 118.242 320.496 118.164C320.842 118.086 321.124 117.978 321.341 117.839C321.557 117.7 321.713 117.536 321.809 117.345C321.913 117.154 321.965 116.951 321.965 116.734C321.965 116.327 321.809 116.006 321.497 115.772C321.193 115.538 320.786 115.421 320.275 115.421C319.885 115.421 319.516 115.499 319.17 115.655C318.823 115.811 318.511 116.015 318.234 116.266L317.662 115.59C318.008 115.287 318.403 115.04 318.845 114.849C319.287 114.65 319.776 114.55 320.314 114.55C320.704 114.55 321.063 114.598 321.393 114.693C321.731 114.788 322.021 114.927 322.264 115.109C322.515 115.282 322.71 115.499 322.849 115.759C322.987 116.019 323.057 116.318 323.057 116.656C323.057 117.159 322.892 117.57 322.563 117.891C322.233 118.212 321.809 118.459 321.289 118.632V118.684C321.566 118.745 321.826 118.836 322.069 118.957C322.32 119.07 322.541 119.217 322.732 119.399C322.922 119.572 323.07 119.776 323.174 120.01C323.286 120.244 323.343 120.504 323.343 120.79C323.343 121.154 323.265 121.483 323.109 121.778C322.953 122.073 322.736 122.324 322.459 122.532C322.19 122.731 321.874 122.887 321.51 123C321.146 123.104 320.756 123.156 320.34 123.156Z" fill="black"/>
<path d="M117.499 216.068L139.143 187.301L150.33 195.719L128.686 224.485L117.499 216.068Z" fill="#FFD86E" stroke="black"/>
<path d="M135.663 211.054L135.154 210.671C135.078 209.735 135 208.901 134.922 208.17C134.848 207.431 134.755 206.791 134.641 206.25C134.526 205.697 134.38 205.235 134.204 204.864C134.028 204.493 133.801 204.203 133.524 203.995C133.143 203.708 132.743 203.591 132.323 203.644C131.904 203.697 131.509 203.97 131.139 204.462C130.905 204.773 130.765 205.124 130.721 205.514C130.676 205.892 130.683 206.271 130.743 206.653L129.887 206.774C129.807 206.247 129.804 205.746 129.879 205.271C129.953 204.784 130.167 204.305 130.521 203.834C130.771 203.502 131.044 203.24 131.339 203.05C131.632 202.848 131.936 202.718 132.249 202.661C132.556 202.599 132.867 202.611 133.183 202.697C133.503 202.775 133.809 202.924 134.1 203.143C134.411 203.377 134.669 203.69 134.873 204.082C135.075 204.462 135.245 204.915 135.381 205.44C135.51 205.961 135.617 206.546 135.703 207.196C135.782 207.841 135.856 208.542 135.926 209.3C136.068 209.081 136.211 208.863 136.353 208.645C136.496 208.427 136.643 208.217 136.794 208.017L138.435 205.835L139.173 206.39L135.663 211.054Z" fill="black"/>
<path d="M44.2751 281.525L80.9952 255.513L89.0879 266.937L52.3678 292.949L44.2751 281.525Z" fill="#FFD86E" stroke="black"/>
<path d="M66.2317 280.064L65.7207 279.343L67.6725 277.96L64.1407 272.975L62.6237 274.049L62.2254 273.487C62.5885 273.145 62.8768 272.84 63.0904 272.572C63.3041 272.303 63.4779 272.032 63.612 271.756L64.2591 271.298L68.5424 277.344L70.3139 276.089L70.8249 276.811L66.2317 280.064Z" fill="black"/>
<line x1="13.5" y1="10" x2="13.5" y2="29" stroke="black" stroke-dasharray="2 2"/>
<line x1="58.5" y1="10" x2="58.5" y2="29" stroke="black" stroke-dasharray="2 2"/>
<line x1="98.5" y1="10" x2="98.5" y2="29" stroke="black" stroke-dasharray="2 2"/>
<line x1="134.5" y1="10" x2="134.5" y2="29" stroke="black" stroke-dasharray="2 2"/>
<line x1="165.5" y1="10" x2="165.5" y2="29" stroke="black" stroke-dasharray="2 2"/>
<line x1="232.5" y1="10" x2="232.5" y2="29" stroke="black" stroke-dasharray="2 2"/>
<line x1="298.5" y1="10" x2="298.5" y2="49" stroke="black" stroke-dasharray="2 2"/>
<line x1="332.5" y1="10" x2="332.5" y2="29" stroke="black" stroke-dasharray="2 2"/>
<line x1="385.5" y1="10" x2="385.5" y2="49" stroke="black" stroke-dasharray="2 2"/>
<line x1="419.5" y1="10" x2="419.5" y2="29" stroke="black" stroke-dasharray="2 2"/>
<line x1="432.5" y1="10" x2="432.5" y2="29" stroke="black" stroke-dasharray="2 2"/>
<line x1="451.5" y1="10" x2="451.5" y2="29" stroke="black" stroke-dasharray="2 2"/>
<line x1="467.5" y1="10" x2="467.5" y2="29" stroke="black" stroke-dasharray="2 2"/>
<line x1="556.5" y1="10" x2="556.5" y2="29" stroke="black" stroke-dasharray="2 2"/>
<line x1="581.5" y1="10" x2="581.5" y2="29" stroke="black" stroke-dasharray="2 2"/>
<line x1="605.5" y1="10" x2="605.5" y2="29" stroke="black" stroke-dasharray="2 2"/>
<line x1="653.5" y1="10" x2="653.5" y2="29" stroke="black" stroke-dasharray="2 2"/>
<line x1="694.5" y1="10" x2="694.5" y2="29" stroke="black" stroke-dasharray="2 2"/>
</svg>
